<svg xmlns="http://www.w3.org/2000/svg" width="50" height="43" viewBox="0 0 50 43" fill="none">
  <mask id="mask0_118_541" style="mask-type:luminance" maskUnits="userSpaceOnUse" x="9" y="0" width="33" height="25">
    <path d="M9 0H41.1462V25H9V0Z" fill="white"/>
  </mask>
  <g mask="url(#mask0_118_541)">
    <path d="M24.8881 0.188066L13.754 6.69605H9.00751H8.65751V7.04605V10.6909V11.3009L9.18413 10.993L13.2763 8.60102V24.9694V25.3194H13.6263H14.3295H14.6795V24.9694V7.78093L25.0647 1.71009L33.594 6.69605H18.5288H18.1788V7.04605V24.9694V25.3194H18.5288H22.7639H23.1139V24.9694V17.8504H27.0173V24.9694V25.3194H27.3673H36.5679H36.9179V24.9694V10.469V10.119H36.5679H35.8647H35.5147V10.469V23.9162H28.4199V16.7972V16.4472H28.0699H22.0601H21.7101V16.7972V23.9162H19.5814V8.09925H35.9958L40.9453 10.993L41.472 11.3009V10.6909V7.04605V6.69605H41.122H36.3761L25.2413 0.188062L25.0647 0.0848338L24.8881 0.188066ZM40.0688 8.09925V8.85493L38.7761 8.09925H40.0688ZM10.0607 8.85499V8.09925H11.3537L10.0607 8.85499Z" fill="#0E0800" stroke="#0E0800" stroke-width="0.7"/>
  </g>
  <path d="M2.45244 28C2.8225 28 3.11855 28.0365 3.34058 28.1096C3.5617 28.1809 3.78739 28.2842 4.01674 28.4203C4.0944 28.4623 4.16385 28.4971 4.22507 28.5263C4.28537 28.5555 4.33837 28.5702 4.38223 28.5702C4.44528 28.5702 4.4937 28.5327 4.52842 28.4569C4.56497 28.3819 4.59421 28.2622 4.61614 28.0987H4.86102C4.8263 28.5766 4.80985 29.3907 4.80985 30.5402H4.56132C4.53391 30.1555 4.44619 29.7891 4.29817 29.44C4.15197 29.0892 3.94455 28.8059 3.67683 28.5884C3.41094 28.3691 3.09936 28.2595 2.74118 28.2595C2.39213 28.2595 2.10888 28.3582 1.88958 28.5555C1.67212 28.7511 1.5643 29.0161 1.5643 29.3523C1.5643 29.6008 1.61729 29.8192 1.72511 30.0065C1.83202 30.192 1.98187 30.3611 2.17467 30.5146C2.36655 30.6681 2.6626 30.8764 3.06281 31.1396L3.40637 31.3735C3.8276 31.654 4.15928 31.898 4.4005 32.1045C4.64355 32.3119 4.84275 32.5531 4.99625 32.8281C5.14976 33.1013 5.22651 33.4202 5.22651 33.7857C5.22651 34.2417 5.10773 34.6254 4.87198 34.937C4.63807 35.2468 4.31827 35.4807 3.9144 35.6387C3.51236 35.7941 3.06372 35.8727 2.5694 35.8727C2.16918 35.8727 1.83659 35.8361 1.57161 35.763C1.30846 35.6927 1.06723 35.5976 0.847937 35.4779C0.688949 35.3783 0.567424 35.3281 0.482447 35.3281C0.418486 35.3281 0.369145 35.3665 0.332596 35.4414C0.296047 35.5145 0.267722 35.6342 0.248533 35.7996H0C0.0292392 35.3491 0.0438588 34.3842 0.0438588 32.9049H0.288737C0.339906 33.7071 0.518996 34.3559 0.826008 34.8529C1.13302 35.3482 1.6045 35.5949 2.24046 35.5949C2.62513 35.5949 2.9422 35.4916 3.19073 35.2842C3.44109 35.0777 3.56718 34.7817 3.56718 34.3961C3.56718 33.9968 3.43744 33.6541 3.17977 33.3691C2.92392 33.0821 2.5164 32.7605 1.95903 32.4042C1.53232 32.1246 1.18967 31.8806 0.932 31.6732C0.676157 31.4667 0.465086 31.2227 0.299702 30.9422C0.136145 30.6599 0.0548235 30.3337 0.0548235 29.9627C0.0548235 29.5341 0.162643 29.1723 0.38011 28.8772C0.599404 28.5802 0.889969 28.36 1.25363 28.2156C1.61638 28.0722 2.01568 28 2.45244 28Z" fill="black"/>
  <path d="M9.33595 28.3546C9.09198 28.3692 8.91655 28.3984 8.80964 28.4423C8.70182 28.4843 8.62872 28.5656 8.59035 28.6872C8.55106 28.8096 8.53187 29.0051 8.53187 29.2756V34.5862C8.53187 34.8594 8.55106 35.0567 8.59035 35.1783C8.62872 35.298 8.70182 35.3793 8.80964 35.4231C8.91655 35.467 9.09198 35.4953 9.33595 35.5072V35.7228C8.95035 35.7009 8.41217 35.69 7.72048 35.69C6.95478 35.69 6.39101 35.7009 6.02826 35.7228V35.5072C6.26217 35.4953 6.43395 35.467 6.5436 35.4231C6.65508 35.3793 6.73091 35.298 6.7702 35.1783C6.80858 35.0567 6.82868 34.8594 6.82868 34.5862V29.2756C6.82868 29.0051 6.80858 28.8096 6.7702 28.6872C6.73091 28.5656 6.65508 28.4843 6.5436 28.4423C6.43395 28.3984 6.26217 28.3692 6.02826 28.3546V28.1426C6.39101 28.1627 6.95478 28.1718 7.72048 28.1718C8.41217 28.1718 8.95035 28.1627 9.33595 28.1426V28.3546Z" fill="black"/>
  <path d="M19.2642 28.3546C19.023 28.3692 18.8485 28.3984 18.7416 28.4423C18.6337 28.4843 18.5606 28.5656 18.5223 28.6872C18.483 28.8096 18.4638 29.0051 18.4638 29.2756V34.5862C18.4638 34.8594 18.483 35.0567 18.5223 35.1783C18.5606 35.298 18.6356 35.3793 18.7452 35.4231C18.8567 35.467 19.0303 35.4953 19.2642 35.5072V35.7228C18.8713 35.7009 18.3112 35.69 17.583 35.69C16.82 35.69 16.2562 35.7009 15.8907 35.7228V35.5072C16.1484 35.4953 16.3366 35.467 16.4536 35.4231C16.5724 35.3793 16.6528 35.298 16.6948 35.1783C16.7387 35.0567 16.7606 34.8594 16.7606 34.5862V28.9869L14.1802 35.7338H14.0085L11.1174 28.837V33.9648C11.1174 34.387 11.1375 34.6958 11.1796 34.8932C11.2234 35.0905 11.3157 35.2349 11.4573 35.3245C11.6008 35.4122 11.8338 35.4734 12.1554 35.5072V35.7228C11.8777 35.7009 11.4912 35.69 10.9968 35.69C10.6039 35.69 10.2951 35.7009 10.0685 35.7228V35.5072C10.3024 35.4734 10.4742 35.414 10.5838 35.3281C10.6953 35.2404 10.7711 35.1043 10.8104 34.9188C10.8488 34.7342 10.8689 34.4601 10.8689 34.0964V29.2756C10.8689 29.0051 10.8488 28.8096 10.8104 28.6872C10.7711 28.5656 10.6953 28.4843 10.5838 28.4423C10.4742 28.3984 10.3024 28.3692 10.0685 28.3546V28.1426C10.2951 28.1627 10.6039 28.1718 10.9968 28.1718C11.6547 28.1718 12.2185 28.1627 12.689 28.1426L14.8527 33.3545L16.8227 28.1718H17.583C18.3112 28.1718 18.8713 28.1627 19.2642 28.1426V28.3546Z" fill="black"/>
  <path d="M22.4871 32.66V34.524C22.4871 34.8091 22.5172 35.0174 22.5784 35.149C22.6387 35.2806 22.7466 35.3683 22.9001 35.4122C23.0536 35.456 23.2985 35.4816 23.6347 35.4889V35.7228C22.7548 35.7009 22.1015 35.69 21.6757 35.69C21.3175 35.69 20.8661 35.6973 20.3234 35.7119L19.9835 35.7228V35.5072C20.2174 35.4953 20.3892 35.467 20.4988 35.4231C20.6103 35.3793 20.6861 35.298 20.7254 35.1783C20.7638 35.0567 20.7839 34.8594 20.7839 34.5862V29.2756C20.7839 29.0051 20.7638 28.8096 20.7254 28.6872C20.6861 28.5656 20.6103 28.4843 20.4988 28.4423C20.3892 28.3984 20.2174 28.3692 19.9835 28.3546V28.1426C20.3462 28.1627 20.888 28.1718 21.6099 28.1718L22.7977 28.1609C22.9412 28.1535 23.1057 28.1499 23.2911 28.1499C24.256 28.1499 24.9916 28.3418 25.4987 28.7237C26.0049 29.1066 26.2589 29.6192 26.2589 30.2624C26.2589 30.6553 26.1584 31.0318 25.9592 31.3918C25.7591 31.7527 25.422 32.0552 24.9468 32.2982C24.4717 32.5394 23.8412 32.66 23.0572 32.66H22.4871ZM23.1523 28.3546C22.9595 28.3546 22.8178 28.3801 22.7283 28.4313C22.6406 28.4807 22.5784 28.5693 22.5419 28.6981C22.5053 28.8279 22.4871 29.0198 22.4871 29.2756V32.4444H22.9476C23.5269 32.4444 23.9271 32.2598 24.1464 31.8889C24.3675 31.5188 24.479 31.0153 24.479 30.3794C24.479 29.6877 24.3767 29.1769 24.172 28.848C23.9691 28.519 23.6292 28.3546 23.1523 28.3546Z" fill="black"/>
  <path d="M30.2223 28.3546C29.9637 28.3692 29.7746 28.3984 29.6558 28.4423C29.5388 28.4843 29.4584 28.5656 29.4146 28.6872C29.3725 28.8096 29.3524 29.0051 29.3524 29.2756V34.7177C29.3524 34.9444 29.3707 35.1106 29.4072 35.2148C29.4438 35.3172 29.5059 35.3866 29.5936 35.4231C29.6832 35.4597 29.8285 35.478 30.0286 35.478H30.5512C31.0382 35.478 31.4586 35.2605 31.8122 34.8237C32.1649 34.3879 32.3951 33.8095 32.5029 33.0877H32.7478C32.7259 33.3316 32.7149 33.6459 32.7149 34.0306C32.7149 34.7159 32.7405 35.2797 32.7917 35.7228C32.3065 35.7009 31.4887 35.69 30.3392 35.69C28.7823 35.69 27.6182 35.7009 26.8488 35.7228V35.5072C27.0827 35.4953 27.2545 35.467 27.3642 35.4231C27.4756 35.3793 27.5515 35.298 27.5908 35.1783C27.6291 35.0567 27.6492 34.8594 27.6492 34.5862V29.2756C27.6492 29.0051 27.6291 28.8096 27.5908 28.6872C27.5515 28.5656 27.4756 28.4843 27.3642 28.4423C27.2545 28.3984 27.0827 28.3692 26.8488 28.3546V28.1426C27.2116 28.1627 27.7753 28.1718 28.541 28.1718C29.2665 28.1718 29.8276 28.1627 30.2223 28.1426V28.3546Z" fill="black"/>
  <path d="M36.6976 28.3546C36.4537 28.3692 36.2782 28.3984 36.1713 28.4423C36.0635 28.4843 35.9904 28.5656 35.952 28.6872C35.9128 28.8096 35.8936 29.0051 35.8936 29.2756V34.5862C35.8936 34.8594 35.9128 35.0567 35.952 35.1783C35.9904 35.298 36.0635 35.3793 36.1713 35.4231C36.2782 35.467 36.4537 35.4953 36.6976 35.5072V35.7228C36.312 35.7009 35.7739 35.69 35.0822 35.69C34.3165 35.69 33.7527 35.7009 33.39 35.7228V35.5072C33.6239 35.4953 33.7956 35.467 33.9053 35.4231C34.0168 35.3793 34.0926 35.298 34.1319 35.1783C34.1703 35.0567 34.1904 34.8594 34.1904 34.5862V29.2756C34.1904 29.0051 34.1703 28.8096 34.1319 28.6872C34.0926 28.5656 34.0168 28.4843 33.9053 28.4423C33.7956 28.3984 33.6239 28.3692 33.39 28.3546V28.1426C33.7527 28.1627 34.3165 28.1718 35.0822 28.1718C35.7739 28.1718 36.312 28.1627 36.6976 28.1426V28.3546Z" fill="black"/>
  <path d="M43.1453 28.1426C43.0959 28.7493 43.0722 29.292 43.0722 29.769C43.0722 30.1053 43.0813 30.3776 43.1014 30.5841H42.8565C42.7122 29.7781 42.4983 29.2098 42.2133 28.8809C41.9282 28.5519 41.528 28.3875 41.0145 28.3875H40.6599C40.4406 28.3875 40.2807 28.4057 40.1811 28.4423C40.0806 28.477 40.013 28.5464 39.9765 28.6506C39.9399 28.7529 39.9216 28.9192 39.9216 29.1477V31.845H40.2981C40.6755 31.845 40.9615 31.7061 41.157 31.4283C41.3544 31.1506 41.4914 30.8198 41.57 30.4342H41.8185C41.7966 30.7339 41.7856 31.0692 41.7856 31.4393V31.9546C41.7856 32.3183 41.8076 32.8245 41.8514 33.4751H41.6029C41.454 32.5321 41.019 32.0606 40.2981 32.0606H39.9216V34.524C39.9216 34.8091 39.9518 35.0174 40.013 35.149C40.0733 35.2806 40.1811 35.3683 40.3346 35.4122C40.4881 35.456 40.733 35.4816 41.0693 35.4889V35.7228C40.1894 35.7009 39.536 35.69 39.1102 35.69C38.7521 35.69 38.3007 35.6973 37.7579 35.7119L37.418 35.7228V35.5072C37.6519 35.4953 37.8237 35.467 37.9334 35.4231C38.0448 35.3793 38.1207 35.298 38.16 35.1783C38.1984 35.0567 38.2185 34.8594 38.2185 34.5862V29.2756C38.2185 29.0051 38.1984 28.8096 38.16 28.6872C38.1207 28.5656 38.0448 28.4843 37.9334 28.4423C37.8237 28.3984 37.6519 28.3692 37.418 28.3546V28.1426C38.1874 28.1627 39.3515 28.1718 40.9085 28.1718C41.9583 28.1718 42.7039 28.1627 43.1453 28.1426Z" fill="black"/>
  <path d="M49.1841 28.161C49.513 28.161 49.7844 28.1518 49.9991 28.1317V28.3437C49.6702 28.4808 49.3276 28.8947 48.9721 29.5864L47.7075 32.0936V34.5863C47.7075 34.8595 47.7267 35.0568 47.766 35.1784C47.8044 35.2981 47.8775 35.3794 47.9853 35.4232C48.0922 35.4671 48.2676 35.4954 48.5116 35.5073V35.7229C48.1242 35.701 47.5732 35.6901 46.8596 35.6901C46.0966 35.6901 45.5438 35.701 45.2003 35.7229V35.5073C45.436 35.4954 45.6096 35.4671 45.7193 35.4232C45.8307 35.3794 45.9066 35.2981 45.9459 35.1784C45.9842 35.0568 46.0043 34.8595 46.0043 34.5863V32.7771L43.9357 28.9541C43.7164 28.5548 43.509 28.3547 43.3143 28.3547V28.1317C43.6287 28.1664 44.0499 28.1829 44.5789 28.1829C45.2441 28.1829 45.9148 28.1664 46.5928 28.1317V28.3547C46.3442 28.3547 46.1451 28.3784 45.997 28.4241C45.8508 28.4707 45.7777 28.5548 45.7777 28.6763C45.7777 28.7403 45.8033 28.8188 45.8545 28.9139L47.4809 32.0498L48.3179 30.3795C48.5957 29.8148 48.7346 29.3726 48.7346 29.0527C48.7346 28.8097 48.6578 28.6343 48.5043 28.5264C48.3508 28.4195 48.1315 28.3583 47.8464 28.3437V28.1317C48.3307 28.1518 48.7766 28.161 49.1841 28.161Z" fill="black"/>
  <path d="M1.85118 42.1724H2.07504V40.6209L3.40817 38.343H3.15141L1.9654 40.3861H1.95991L0.76933 38.343H0.512573L1.85118 40.6209V42.1724Z" fill="#373D3B"/>
  <path d="M7.65999 42.3084C8.88439 42.3084 9.69303 41.4952 9.69303 40.2599C9.69303 39.0199 8.88439 38.2058 7.65999 38.2058C6.43652 38.2058 5.62787 39.0199 5.62787 40.2599C5.62787 41.4952 6.43652 42.3084 7.65999 42.3084ZM7.65999 42.0955C6.56809 42.0955 5.85173 41.3636 5.85173 40.2599C5.85173 39.1515 6.56809 38.4196 7.65999 38.4196C8.74733 38.4196 9.46826 39.1515 9.46826 40.2599C9.46826 41.3636 8.74733 42.0955 7.65999 42.0955Z" fill="#373D3B"/>
  <path d="M13.596 42.3085C14.5252 42.3085 15.0716 41.763 15.0716 40.8337V38.3429H14.8414V40.8337C14.8414 41.6314 14.3937 42.0956 13.596 42.0956C12.8038 42.0956 12.3506 41.6204 12.3506 40.8337V38.3429H12.1267V40.8337C12.1267 41.763 12.6676 42.3085 13.596 42.3085Z" fill="#373D3B"/>
  <path d="M20.412 42.2821C20.5755 42.2821 20.751 42.2053 20.8926 42.0089L20.7455 41.8609C20.6578 42.0034 20.5435 42.0738 20.4284 42.0738C20.2913 42.0738 20.232 41.976 20.1936 41.806L19.9807 41.0084C19.9094 40.747 19.7888 40.5332 19.5923 40.4135V40.408C20.1991 40.3313 20.581 39.9219 20.581 39.392C20.581 38.7524 20.0949 38.343 19.3411 38.343H17.6425V42.1724H17.8663V40.4519H19.1062C19.4836 40.4519 19.6636 40.6922 19.7459 41.0138L19.9697 41.8444C20.0401 42.1012 20.1552 42.2821 20.412 42.2821ZM17.8663 40.2326V38.5559H19.3411C19.9533 38.5559 20.3517 38.8894 20.3517 39.3975C20.3517 39.9055 19.9533 40.2326 19.3411 40.2326H17.8663Z" fill="#373D3B"/>
  <path d="M27.8407 42.1724H28.0646V40.2819H30.4576V42.1724H30.6815V38.343H30.4576V40.069H28.0646V38.343H27.8407V42.1724Z" fill="#373D3B"/>
  <path d="M35.1995 42.3084C36.4239 42.3084 37.2326 41.4952 37.2326 40.2599C37.2326 39.0199 36.4239 38.2058 35.1995 38.2058C33.9761 38.2058 33.1674 39.0199 33.1674 40.2599C33.1674 41.4952 33.9761 42.3084 35.1995 42.3084ZM35.1995 42.0955C34.1076 42.0955 33.3913 41.3636 33.3913 40.2599C33.3913 39.1515 34.1076 38.4196 35.1995 38.4196C36.2869 38.4196 37.0078 39.1515 37.0078 40.2599C37.0078 41.3636 36.2869 42.0955 35.1995 42.0955Z" fill="#373D3B"/>
  <path d="M39.7281 42.1724H39.952V38.6107H39.9629L41.5583 42.1724H41.837L43.4259 38.6107H43.4369V42.1724H43.6617V38.343H43.3062L41.6999 41.9266H41.6944L40.0826 38.343H39.7281V42.1724Z" fill="#373D3B"/>
  <path d="M46.2831 42.1723H48.922V41.9594H46.507V40.2873H48.6488V40.0744H46.507V38.5558H48.8672V38.3429H46.2831V42.1723Z" fill="#373D3B"/>
</svg>